# xmcd CD database file
# Copyright (C) 1993-1998 Ti Kan
#
# Track frame offsets:
#	150
#	16200
#	33480
#	64277
#	82720
#	106167
#	126565
#	150820
#	170492
#	194347
#	222512
#	245572
#	268450
#	297310
#
# Disc length: 4212 seconds
#
# Revision: 1
# Processed by: cddbd v1.4b41PL1 Copyright (c) Steve Scherf et al.
# Submitted via: CDmax 1.5
#
DISCID=c910720e
DTITLE=Al Miller - Wild Cards
DYEAR=1900
DGENRE=
TTITLE0=I Don't Play
TTITLE1=Stuck In Chicago
TTITLE2=Seventy-Four
TTITLE3=Long Grey Mare
TTITLE4=Can't Stay Here No More
TTITLE5=Special Way
TTITLE6=Deal The Cards
TTITLE7=Red Top Boogie
TTITLE8=Fallin' Rain
TTITLE9=I Had A Dream
TTITLE10=Jockey Blues
TTITLE11=Big 'C' Blues
TTITLE12=Blues For John Littlejohn
TTITLE13=Sittin' Here Thinkin'
EXTD=
EXTT0=
EXTT1=
EXTT2=
EXTT3=
EXTT4=
EXTT5=
EXTT6=
EXTT7=
EXTT8=
EXTT9=
EXTT10=
EXTT11=
EXTT12=
EXTT13=
PLAYORDER=
